<svg xmlns="http://www.w3.org/2000/svg" width="76" height="49.75" viewBox="0 0 76 49.75">
  <defs>
    <style>
      .cls-1 {
        fill: #55a1ff;
        fill-rule: evenodd;
      }
    </style>
  </defs>
  <path class="cls-1" d="M788.217,978.227A10.078,10.078,0,1,0,798.285,988.3,10.079,10.079,0,0,0,788.217,978.227ZM788.57,992.4a4.213,4.213,0,1,1,4.211-4.213A4.21,4.21,0,0,1,788.57,992.4Zm-26.438-26.719c-1.447,0-2.632-.827-2.632-1.839S758.316,962,756.868,962h-9.709c-1.448,0-2.632.828-2.632,1.839s-1.184,1.839-2.632,1.839h-3.268A2.64,2.64,0,0,0,736,968.311v40.819a2.636,2.636,0,0,0,2.632,2.63h70.746a2.637,2.637,0,0,0,2.632-2.63V968.311a2.641,2.641,0,0,0-2.632-2.632H762.132ZM759.5,976.734a2.639,2.639,0,0,1-2.632,2.632h-9.709a2.639,2.639,0,0,1-2.632-2.632v-1.621a2.64,2.64,0,0,1,2.632-2.632h9.709a2.64,2.64,0,0,1,2.632,2.632v1.621Zm28.717,27.166a15.6,15.6,0,1,1,15.6-15.6A15.6,15.6,0,0,1,788.217,1003.9Z" transform="translate(-736 -962)"/>
</svg>
