<svg xmlns="http://www.w3.org/2000/svg" width="77.062" height="70.219" viewBox="0 0 77.062 70.219">
  <defs>
    <style>
      .cls-1 {
        fill: #55a1ff;
        fill-rule: evenodd;
      }
    </style>
  </defs>
  <path class="cls-1" d="M563.366,950.018a5.579,5.579,0,0,0-5.521,4.523H557.7l-18.122,20.4h9.061l12.535-14.094a5.625,5.625,0,0,0,2.19.5,5.7,5.7,0,0,0,2.2-.5l12.521,14.094h9.075l-18.135-20.4h-0.145a5.554,5.554,0,0,0-5.519-4.523h0Zm-32.845,29.449A4.529,4.529,0,0,0,525.983,984v2.265a4.478,4.478,0,0,0,4.184,4.462l7.145,24.989c2.268,4.54,4.538,4.54,6.791,4.54H584.9c2.27,0,4.523,0,6.793-4.54l7.159-24.989a4.478,4.478,0,0,0,4.17-4.462V984a4.519,4.519,0,0,0-4.524-4.537H530.521ZM543.266,990.8h1.127a5.833,5.833,0,0,1,5.52,4.249l3.186,14.1a3.452,3.452,0,0,1-3.606,4.31h-1.141a5.877,5.877,0,0,1-5.519-4.31l-3.187-14.1a3.422,3.422,0,0,1,3.62-4.249h0Zm21.241,0a4.519,4.519,0,0,1,4.523,4.538v13.6a4.53,4.53,0,0,1-9.06,0v-13.6a4.529,4.529,0,0,1,4.537-4.538h0Zm20.1,0h1.141a3.413,3.413,0,0,1,3.6,4.249l-3.186,14.1a5.875,5.875,0,0,1-5.52,4.31h-1.141a3.454,3.454,0,0,1-3.605-4.31l3.186-14.1a5.835,5.835,0,0,1,5.52-4.249h0Z" transform="translate(-525.969 -950.031)"/>
</svg>
