<svg xmlns="http://www.w3.org/2000/svg" width="97.938" height="97.939" viewBox="0 0 97.938 97.939">
  <defs>
    <style>
      .cls-1 {
        fill: #55a1ff;
        fill-rule: evenodd;
      }
    </style>
  </defs>
  <path class="cls-1" d="M360.007,939.021a48.98,48.98,0,1,0,48.972,48.984,49,49,0,0,0-48.972-48.984h0Zm0,4.984A44.019,44.019,0,0,1,399.563,968.8v0.1a15,15,0,0,1,.083,1.6,9.878,9.878,0,0,1,1.25,1.333,44.439,44.439,0,0,1,2.222,7.9,2.8,2.8,0,0,1-1.875.721c-4.541-3.58-.1,3.932,2.4,2.571a45.446,45.446,0,0,1,.361,4.984,43.622,43.622,0,0,1-10.583,28.445,6.6,6.6,0,0,1,.18-1.17c3.056-3.7,2.486-11.02-3.736-10.22-3.236,2.54-7.722,5.81-11.653,2.06-4.1-3.7-2.194-9.806.1-13.958,2.291-3.336,3.041-8.268,7.111-9.961,4.013,0.919,8.93.641,10.4-4.262,1.25-2.2.542-2.934-.625-3.474a1.594,1.594,0,0,1-.263-0.081c-1.334-.56-3.028-1-3.209-2.934,1.195-2.054-1.333-6.261-2.305-2.5,2.069,2.346,2.541,9.389-2.4,6.766,1.764,2.819-6.375,1.012-4.806,4.97,1.292,4.306-7.347,6.738-4.888,1.252,1.388-4.043-.639-10.113,2.944-12.711-0.042-.124.319-0.665,0.167-0.1a3.312,3.312,0,0,1,.361-0.264c3.124-2.155-3.973-8.625-3.556-4.625,3.056,1.6,1.375,4.821-1.6,3.209-3.125-1.542-4.264-10.11.083-9.513,3.278,0.431.153-3.029-1.333-4.711-0.153.779-.389-0.153-0.264-0.263-0.069-.083-0.209-0.206-0.278-0.278,0.417-5.152-8.167-.64-9.6-5.236-5.4-2.679-11.583-2.831-17.6-2.4a43.319,43.319,0,0,1,7.111-1.515l0.708-.084c0.667-.069,1.347-0.154,1.959-0.264,1.166-.1,2.361-0.182,3.555-0.182h0.014Zm-18.4,5.863c6.139,2.042-3.111,8.542,1.514,11.111a2.979,2.979,0,0,1,1.236.264c0.125-.125.167-0.057,0.181,0.1,2.069,0.96,2.513,3.918-.889,3.723-4.708-1.333-6.57,8.721-1.959,7.473,1.695-4.736,6.806-2.736,7.737,1.416,2.749,4.277-2.875,4.238-4.806,6.054,1.944,3.5-3.417,1.655-5.417,3.379-3.833.845-5.014,6.666-8.361,6.844-0.139-6.094-10.291-4.039-8.625,1.5,2.167,1.695,5.056,3.445,4.625,7.028-0.166,7.553,9.125,5.073,13.25,9.073,5.07,2.22,8.32,6.79,12.792,9.78,3.875-1.32,11.041,2.36,7.208,7.01a30.89,30.89,0,0,1-7.736,4.18v0.09a20.709,20.709,0,0,1-5.25,1.16,43.926,43.926,0,0,1-9.68-4.36c-0.014-.03.013-0.06,0-0.08-1.375-4-5.056-6.48-7.556-9.7a5.289,5.289,0,0,1-1.43-4.35c0.027-.01-0.028-0.08,0-0.09,0.166-2.56,1.069-5.23-.792-7.56-2.9-4.848-6.556-9.29-8.445-14.667-0.208-5.554-.513-10.887,1.334-16.181,4.111-8.444,14.361-17.458,21.069-23.194h0Zm13.07,6.849a1.94,1.94,0,0,1,.527.082c1.07,0,.709,1.194,0,1.514-2.527,2.375-3.152-1.1-1.069-1.514a3.145,3.145,0,0,1,.542-0.082h0Zm3.458,0.79a3.543,3.543,0,0,1,4.18,2.666c1.278,5.1-3.805,8.391-5.694,12.544-4.681-1.309.264-6.474-1.778-8.988-2.8-2.9.25-5.831,3.292-6.222h0Zm-9.153,5.069c2.958-.18,2.389,6.362-0.083,7.375-2.167-1.984.68-4.9-.542-7.194a3.424,3.424,0,0,1,.625-0.181h0Zm25.514,10.486c0.972-.053,3.139.945,2.931,2.322-0.931,1.567-3.556,1.428-2.584-.889-1.055-.988-0.93-1.391-0.347-1.433h0Zm-25.6,6.766c1.153-.21,3.639.665,1.333,2.04,0.736-.778-0.542-0.486-0.722-0.444-1.486-1.028-1.32-1.471-.611-1.6h0Zm-9.333,3.637c0.319,0.044-.112.472-0.542,0.363h-0.083a0.728,0.728,0,0,1-.181-0.182,1.835,1.835,0,0,1,.806-0.181h0Zm-9.07,12.363a1.939,1.939,0,0,1,.708,0,4.317,4.317,0,0,1,.806.177,0.167,0.167,0,0,0,0,.085c0.958,0.335,1.847,1.085,1.417,2.306a1.832,1.832,0,0,1-1.959-.79c-1.6-.988-1.569-1.611-0.972-1.778h0Z" transform="translate(-311.031 -939.031)"/>
</svg>
